<mxfile host="app.diagrams.net" modified="2024-03-05T13:09:09.429Z" agent="Mozilla/5.0 (Windows NT 10.0; Win64; x64) AppleWebKit/537.36 (KHTML, like Gecko) Chrome/114.0.5735.289 Safari/537.36" version="24.0.1" etag="-MV3Gdmd7Dtsziz2pk5T" type="github">
  <diagram name="第 1 页" id="y6LcC8Bx-JpPzjx_dMzJ">
    <mxGraphModel>
      <root>
        <mxCell id="0" />
        <mxCell id="1" parent="0" />
      </root>
    </mxGraphModel>
  </diagram>
</mxfile>
